# xmcd
#
# Track frame offsets:
#	150
#	19857
#	36054
#	51957
#	72259
#	88346
#	102467
#	120444
#	135702
#	147717
#	161916
#	177496
#	200536
#	237943
#
# Disc length: 3439 seconds
#
# Revision: 1
# Processed by: cddbd v1.5.2PL0 Copyright (c) Steve Scherf et al.
# Submitted via: audiograbber 1.83.01
#
DISCID=d40d6d0e
DTITLE=The Mavericks - In Time
DYEAR=2013
DGENRE=Country
TTITLE0=Back In Your Arms Again
TTITLE1=Lies
TTITLE2=Born To Be Blue
TTITLE3=Come Unto Me
TTITLE4=In Another's Arms
TTITLE5=Fall Apart
TTITLE6=All Over Again
TTITLE7=Forgive Me
TTITLE8=Amsterdam Moon
TTITLE9=That's Not My Name
TTITLE10=As Long As There's Loving Tonight
TTITLE11=Dance In The Moonlight
TTITLE12=(Call Me) When You Get To Heaven
TTITLE13=Ven Hacia Mi (Come Unto Me)
EXTD=
EXTT0=
EXTT1=
EXTT2=
EXTT3=
EXTT4=
EXTT5=
EXTT6=
EXTT7=
EXTT8=
EXTT9=
EXTT10=
EXTT11=
EXTT12=
EXTT13=
PLAYORDER=
